# xmcd
#
# Track frame offsets:
#	150
#	22970
#	35575
#	52042
#	64612
#	85329
#	98815
#	119110
#	141925
#	154435
#	168617
#	184305
#
# Disc length: 2873 seconds
#
# Revision: 0
# Processed by: cddbd v1.4PL0 Copyright (c) Steve Scherf et al.
# Submitted via: dBpowerAMP V4.0
#
DISCID=af0b370c
DTITLE=Wallace Johnson - Whoever's Thrilling You
DYEAR=1996
DGENRE=Blues
TTITLE0=This Night Belongs To You
TTITLE1=Don't Make Me Beg
TTITLE2=Whoever's Thrilling You, is Killing Me
TTITLE3=Knockin'
TTITLE4=Write My Baby a Letter
TTITLE5=Let's Take a Ride
TTITLE6=Something's Wrong
TTITLE7=I'll Take Care of You
TTITLE8=Miss Thang
TTITLE9=I Can Stop
TTITLE10=Better Weather Next Time
TTITLE11=I'm Your Man
EXTD=
EXTT0=
EXTT1=
EXTT2=
EXTT3=
EXTT4=
EXTT5=
EXTT6=
EXTT7=
EXTT8=
EXTT9=
EXTT10=
EXTT11=
PLAYORDER=
